<?xml version="1.0" standalone="no"?>
<!DOCTYPE svg PUBLIC "-//W3C//DTD SVG 20010904//EN"
 "http://www.w3.org/TR/2001/REC-SVG-20010904/DTD/svg10.dtd">
<svg version="1.0" xmlns="http://www.w3.org/2000/svg"
 width="184.000000pt" height="184.000000pt" viewBox="0 0 184.000000 184.000000"
 preserveAspectRatio="xMidYMid meet">

<g transform="translate(0.000000,184.000000) scale(0.100000,-0.100000)"
fill="#000000" stroke="none">
<path d="M547 1791 c-21 -3 -37 -10 -36 -15 0 -5 -4 -12 -11 -16 -6 -4 6 -14
30 -25 89 -40 125 -117 97 -209 -27 -89 -29 -111 -12 -157 29 -78 29 -77 3
-82 -16 -3 -12 -5 13 -6 23 0 39 4 42 12 3 8 26 20 51 27 42 11 48 11 66 -5
29 -26 25 -42 -15 -55 -19 -6 -38 -16 -41 -22 -4 -6 2 -6 15 1 17 10 20 9 15
-4 -4 -8 -2 -15 4 -15 5 0 12 9 15 20 7 28 96 30 104 2 3 -14 12 -17 41 -14
l36 5 -52 19 -52 19 18 24 c13 19 26 24 62 25 62 0 121 -11 114 -21 -3 -5 6
-9 20 -9 13 0 37 -5 52 -10 19 -8 30 -8 38 0 15 15 35 12 98 -14 32 -13 55
-20 53 -15 -10 16 -111 47 -174 53 -36 3 -66 8 -67 9 -2 2 4 27 13 57 13 45
14 66 5 119 -9 52 -8 70 3 91 25 48 80 87 140 101 31 7 54 17 52 23 -13 41
-166 58 -267 31 -36 -10 -90 -20 -119 -21 -30 -2 -61 -6 -69 -9 -7 -3 -25 8
-40 24 -53 58 -137 79 -245 62z m179 -340 c-12 -13 -14 -21 -6 -26 18 -11 40
3 40 25 0 15 7 20 25 20 21 0 25 -5 25 -30 0 -35 -19 -43 -101 -38 -50 3 -54
5 -54 28 0 24 22 37 69 39 18 1 18 0 2 -18z m230 4 c-15 -11 -17 -18 -8 -27
13 -13 42 6 42 28 0 17 -1 17 39 3 33 -12 39 -27 19 -47 -12 -12 -124 -17
-152 -6 -16 6 -22 45 -9 57 3 4 25 7 47 7 38 -1 40 -2 22 -15z"/>
<path d="M500 1270 c-11 -7 -5 -8 20 -4 43 8 51 14 19 14 -13 0 -31 -5 -39
-10z"/>
<path d="M589 1266 c8 -10 2 -15 -28 -25 -22 -6 -50 -20 -63 -31 l-23 -21 34
20 c30 17 36 18 45 5 6 -8 35 -17 65 -21 48 -5 52 -8 36 -20 -11 -7 -16 -13
-12 -13 4 0 3 -8 -2 -19 -9 -16 -7 -20 14 -23 14 -3 43 0 66 6 36 9 42 8 55
-9 8 -11 19 -38 26 -60 6 -22 13 -35 15 -28 2 7 -5 33 -17 59 -24 55 -21 59
56 80 63 17 68 8 39 -70 -53 -140 -53 -222 0 -299 12 -19 26 -46 30 -58 6 -19
2 -17 -20 11 l-27 35 6 -40 6 -40 -18 22 -19 22 -11 -32 c-9 -30 -10 -30 -12
-7 -1 14 -5 34 -9 45 -7 17 -11 11 -24 -30 -14 -48 -15 -49 -16 -16 -1 33 -2
34 -16 15 -13 -17 -14 -16 -5 16 6 19 10 46 10 60 -1 24 -1 23 -14 -6 -8 -18
-19 -34 -24 -38 -6 -3 4 29 23 71 18 43 36 92 40 108 3 17 -5 2 -18 -31 -25
-65 -66 -139 -103 -189 -32 -43 -64 -115 -64 -147 0 -33 -3 -33 -35 -12 -37
24 -91 11 -110 -26 -24 -47 -18 -92 25 -181 48 -100 51 -140 13 -178 l-28 -27
30 -16 c36 -18 49 -68 18 -68 -11 0 -24 5 -31 12 -9 9 -12 9 -12 0 0 -21 -30
-13 -40 11 -7 18 -9 18 -9 4 -1 -11 -6 -16 -13 -12 -7 4 -4 -1 7 -9 16 -14 40
-15 160 -10 77 3 156 10 175 15 19 5 79 6 132 2 69 -4 102 -2 112 6 9 8 35 10
77 6 44 -4 72 -2 89 7 28 15 38 44 20 62 -8 8 -10 7 -5 -6 4 -9 2 -25 -4 -35
-9 -16 -11 -15 -12 7 l-1 25 -7 -24 c-10 -36 -31 -38 -32 -4 -1 23 -2 24 -6 6
-3 -18 -11 -23 -34 -23 -33 0 -37 14 -13 49 13 18 24 22 54 19 21 -2 36 0 34
4 -3 5 -18 8 -34 8 -28 0 -40 15 -40 51 0 13 7 19 24 19 114 0 208 111 210
250 0 50 -6 82 -28 138 -37 91 -31 119 29 140 87 30 97 36 111 58 14 20 14 26
0 53 -19 35 -61 47 -133 37 -156 -21 -230 -145 -152 -257 87 -126 84 -120 83
-180 -1 -63 -26 -115 -69 -143 -50 -33 -56 -21 -25 48 39 86 47 137 25 159
-18 19 -90 23 -100 7 -13 -21 -25 -9 -25 25 0 55 -26 105 -85 165 -64 65 -85
110 -85 184 0 63 52 221 76 230 8 3 36 -2 61 -10 33 -11 48 -13 51 -5 2 6 8 8
14 5 6 -4 14 -1 18 6 10 15 71 -19 95 -53 8 -11 18 -18 21 -14 12 11 -24 44
-82 74 -30 15 -54 31 -54 34 0 12 134 -21 167 -41 18 -11 33 -15 33 -11 0 12
-81 51 -104 51 -12 0 -16 5 -13 14 4 10 -2 16 -16 19 -12 2 -4 5 18 5 35 1 81
-11 160 -43 15 -6 17 -5 10 3 -17 19 -125 52 -169 52 -30 0 -37 3 -26 10 11 7
0 10 -39 10 l-54 0 24 -19 c13 -10 31 -21 39 -25 8 -3 4 -4 -10 -2 -39 6 -69
14 -83 21 -6 4 -1 -3 12 -15 21 -18 22 -23 10 -31 -11 -7 -9 -9 8 -9 12 0 25
-5 29 -12 5 -8 2 -9 -11 -4 -10 4 -37 11 -60 16 -23 5 -50 13 -60 16 -14 6
-17 4 -12 -8 5 -13 -3 -16 -48 -15 -31 1 -61 -5 -72 -13 -15 -12 -16 -12 -5 0
24 27 12 31 -19 6 -29 -25 -42 -30 -101 -39 -24 -4 -26 -2 -17 14 5 11 15 19
21 19 6 0 8 3 5 6 -3 4 -2 15 3 24 9 16 6 17 -30 8 -22 -6 -48 -7 -57 -3 -10
5 -25 7 -33 6 -11 -1 -10 1 3 9 9 6 22 8 27 5 6 -3 10 -1 10 5 0 6 10 8 26 4
18 -5 25 -3 20 4 -3 6 2 16 11 22 16 10 16 10 -2 6 -11 -3 -35 -2 -54 4 -26 7
-31 7 -22 -4z m829 -369 c22 -18 10 -59 -24 -79 -35 -21 -66 -15 -57 10 5 12
2 14 -12 8 -18 -7 -18 -6 0 14 14 15 15 20 4 21 -8 0 -6 4 6 9 12 5 14 9 6 9
-11 1 -10 5 5 16 19 14 48 11 72 -8z m-441 -739 c29 -27 31 -68 4 -68 -11 0
-22 8 -24 18 -4 13 -5 11 -6 -5 -1 -28 -41 -33 -41 -6 0 15 -2 14 -14 -3 -11
-15 -17 -16 -27 -7 -16 16 5 67 34 81 33 16 49 14 74 -10z m-240 -9 c16 -14
17 -51 1 -67 -20 -20 -38 -13 -39 16 l-2 27 -4 -27 c-3 -22 -10 -28 -29 -28
-13 0 -24 6 -25 13 0 10 -2 10 -6 0 -2 -7 -13 -13 -24 -13 -20 0 -25 23 -13
55 15 39 104 54 141 24z"/>
<path d="M449 1239 l-24 -20 28 17 c15 9 27 18 27 20 0 8 -8 4 -31 -17z"/>
<path d="M449 1173 c-13 -16 -12 -17 4 -4 9 7 17 15 17 17 0 8 -8 3 -21 -13z"/>
<path d="M524 1078 l-19 -23 23 19 c21 18 27 26 19 26 -2 0 -12 -10 -23 -22z"/>
</g>
</svg>
